<?xml version="1.0" standalone="no"?><!DOCTYPE svg PUBLIC "-//W3C//DTD SVG 1.1//EN" "http://www.w3.org/Graphics/SVG/1.1/DTD/svg11.dtd"><svg t="1711305035547" class="icon" viewBox="0 0 1024 1024" version="1.1" xmlns="http://www.w3.org/2000/svg" p-id="2608" xmlns:xlink="http://www.w3.org/1999/xlink" width="200" height="200"><path d="M504.78 193.143L803.244 1024 503.262 867.635 204.8 1024l299.98-830.857z m7.408 91.222l-1.52 1.416v550.571l248.901 135.8-247.381-687.787zM477.235 0l70.4 105.78V38.331c0-12.288-1.536-18.398-4.59-23.006-3.056-3.072-7.647-6.144-16.828-6.144V0h47.445v9.199c-7.646 0-13.773 1.536-15.309 6.144-2.782 2.782-3.038 9.37-3.072 19.746v110.54H539.99L461.926 29.134v79.701c0 10.735 1.536 18.398 4.608 23.006 3.055 3.072 7.646 6.127 16.828 6.127v6.144h-47.445v-7.68c7.646 0 12.237-1.536 15.309-6.144 2.781-2.782 3.02-9.37 3.055-19.746V32.205c0-9.216-1.536-15.343-3.072-18.415-1.536-3.072-7.646-4.608-13.773-4.608V0h39.8z" p-id="2609" fill="#2c2c2c"></path></svg>