<?xml version="1.0" standalone="no"?><!DOCTYPE svg PUBLIC "-//W3C//DTD SVG 1.1//EN" "http://www.w3.org/Graphics/SVG/1.1/DTD/svg11.dtd"><svg t="1711305075009" class="icon" viewBox="0 0 1024 1024" version="1.1" xmlns="http://www.w3.org/2000/svg" p-id="3996" xmlns:xlink="http://www.w3.org/1999/xlink" width="200" height="200"><path d="M509.155556 216.177778L230.4 987.022222l277.333333-145.066666 278.755556 145.066666-277.333333-770.844444zM573.155556 45.511111c-7.111111 0-12.8 1.422222-14.222223 5.688889-2.844444 2.844444-2.844444 9.955556-2.844444 21.333333v99.555556h-14.222222L469.333333 64v73.955556c0 9.955556 1.422222 17.066667 4.266667 21.333333 2.844444 2.844444 7.111111 5.688889 15.644444 5.688889v5.688889h-44.088888v-7.111111c7.111111 0 11.377778-1.422222 14.222222-5.688889 2.844444-2.844444 2.844444-9.955556 2.844444-21.333334V66.844444c0-8.533333-1.422222-14.222222-2.844444-17.066666-1.422222-2.844444-7.111111-4.266667-12.8-4.266667v-8.533333H483.555556l65.422222 98.133333V72.533333c0-11.377778-1.422222-17.066667-4.266667-21.333333-2.844444-2.844444-7.111111-5.688889-15.644444-5.688889v-8.533333h44.088889v8.533333z" p-id="3997" fill="#2c2c2c"></path></svg>