<?xml version="1.0" standalone="no"?><!DOCTYPE svg PUBLIC "-//W3C//DTD SVG 1.1//EN" "http://www.w3.org/Graphics/SVG/1.1/DTD/svg11.dtd"><svg t="1711305119539" class="icon" viewBox="0 0 1024 1024" version="1.1" xmlns="http://www.w3.org/2000/svg" p-id="7785" xmlns:xlink="http://www.w3.org/1999/xlink" width="200" height="200"><path d="M484.35891 118.216846h14.793102V25.312072l61.245489 92.904774h15.816845V0h-14.793101v92.802399L500.175756 0h-15.816846v118.216846z m49.523619 24.876981l-10.698125 44.456086c-41.205699 2.098675-81.643589 12.156961-119.010248 29.63739l-13.462234-19.041639 3.378355 23.87883v0.076781l-0.255936 0.153561a319.254586 319.254586 0 0 0-144.987753 151.846839l-5.11872-1.126119-23.546113-5.221095 18.555361 15.381755 4.606848 3.83904a319.228993 319.228993 0 0 0-23.085429 111.613697L165.129918 511.872032l45.710172 11.005249 9.87913 2.380205a319.228993 319.228993 0 0 0 28.792802 114.83849l-10.749313 8.932167-18.606548 15.381755 23.546113-5.221095 13.769358-3.045639 0.255936 0.511872a319.254586 319.254586 0 0 0 148.596451 139.869033l-1.228493 8.548263-3.378355 23.87883 13.922919-19.707073 4.709223-6.654336c31.992002 12.822394 65.80115 20.423694 100.147763 22.445588l13.385453 55.614896 11.005249-45.735766 2.277831-9.418445a319.28018 319.28018 0 0 0 102.937465-19.707073l2.431392 3.455136 13.897326 19.707073-3.378355-23.87883-0.588653-4.146164a319.254586 319.254586 0 0 0 157.042339-141.430242l22.215246 4.913972-17.275681-14.332417a319.228993 319.228993 0 0 0 33.783554-127.507324L902.635141 511.872032l-44.072182-10.621345a319.203399 319.203399 0 0 0-24.646638-117.935316l0.204749-0.179155 18.580954-15.356161-23.341364 5.144314a319.152212 319.152212 0 0 0-156.12097-156.376906l0.793402-5.528218 3.378355-23.87883-13.897326 19.707073-2.968857 4.197351a319.228993 319.228993 0 0 0-116.066984-23.878831l-10.621344-44.072181z m116.96276 81.79715q-49.472432-19.553512-102.348813-21.114721l-2.661735-11.08203q59.453937 1.177306 114.377806 24.134767l-4.734816 9.981504-4.658036-1.91952z m164.899575 172.065784q18.939265 47.860035 20.67963 98.970457l-182.55916-43.944214-14.409198 7.857236 170.453387 41.026543h-245.724169l-13.385454 7.294177 104.165959-56.817796 81.285278-133.393851 12.284929-20.730818-154.047888 99.047239 0.255936-0.486279-44.916771-186.449388q51.136016 1.740365 98.970458 20.679631 4.734816 1.893927 9.392851 3.915821 50.726518 22.036091 90.24304 61.168707l1.126118 1.100525q38.646338 38.646338 60.835991 88.118771 1.126118 2.508173 2.20105 5.041939 1.637991 3.787853 3.148013 7.6013zM429.972507 230.009698q42.587753-16.866183 87.786053-20.090978l-44.788802 186.142265-127.84004-80.491877-20.423695-12.847988 88.067584 148.596451 1.177305 0.63984-171.528318 41.308073q2.149863-49.702774 20.60285-96.308723 1.791552-4.581255 3.762259-9.085729 21.114721-48.730217 57.969508-87.12062 1.893927-1.996301 3.83904-3.941414l0.614246-0.614247q34.628143-34.628143 77.932517-56.049987 11.133217-5.502624 22.829493-10.135066z m-104.677831 62.294826l-0.435091 0.460685-7.498925-8.087578q34.781705-34.832892 78.572357-57.329668l4.171757 10.186253q-41.35926 21.345064-74.784504 54.770308z m197.582605 203.059635l-42.203849-84.330917 42.178255-175.188203v259.51912z m302.516371-117.909723l-10.007099 4.581255q-21.856936-48.67903-59.351562-87.069433l7.550113-8.03639q38.953462 39.746863 61.808548 90.524568z m-109.591802-46.657135l-156.376906 160.113571 39.260585-78.521169 5.784154-11.517121 111.332167-70.075281z m-358.387204 5.528218l150.899875 154.585353-87.606898-47.808848-63.292977-106.776505z m-99.507923 58.609347q-19.092827 48.192752-21.03794 99.661485l-11.107623 2.661734q1.637991-57.790352 23.87883-111.280979l9.981505 4.658035-1.714772 4.299725zM18.76011 451.317571H0l31.275381 121.108922h17.889928l22.087278-93.467833h0.588653l22.164059 93.467833h17.659585l31.428943-121.108922h-18.76011l-21.191503 94.286828h-0.614246l-22.266433-94.286828h-17.403649l-22.24084 94.286828h-0.63984l-21.217096-94.286828z m1001.528818 0H935.702074v121.108922H1023.744064v-14.767508h-70.126468v-39.670082h63.216196v-14.767508h-63.216196v-37.136316h66.671332v-14.767508z m-507.213997 76.883179l-79.340165 37.008348-175.853636-42.331817H522.877281l-9.80235 5.323469z m307.788653 89.577605q17.506023-44.20015 20.577256-91.164408l11.209997-2.687329q-3.557511 64.751812-32.708623 122.874882l-9.930317-4.683629q5.886528-11.849838 10.851687-24.313922z m-172.884779 165.257886q-46.222044 18.145864-95.464134 20.270132l40.412297-167.894026 144.603849 91.113222-12.284928-20.730818-67.08083-133.368258-2.533767-1.100524 180.204549-43.381155q-3.224794 45.223894-20.090977 87.83724-4.862784 12.284929-10.723719 23.981205l-2.508173 4.913972q-20.782004 39.670082-52.978756 71.866833-4.709223 4.709223-9.623194 9.213697-38.390402 35.216796-86.83909 55.230992l-4.274131 1.714771-0.818996 0.332717z m-384.927768-167.254187q-16.379905-41.333667-19.911822-85.124318l174.957861 42.101474-75.32197 127.660885-11.209997 18.427393-2.329018-2.303424q-33.169308-33.194901-54.232842-74.323819-6.577556-12.822394-11.952212-26.438191z m281.836741 172.116971v-248.513871l40.386703 80.824594-40.386703 167.689277z m14.562759-244.034991l64.367908 35.140015-61.680579-33.962709 87.325368 38.390402 55.384554 109.489428-145.397251-149.057136z m-196.123769 143.964009l143.477731-142.735516-36.394102 71.866833-3.83904 7.524519-103.244589 63.344164z m-29.739765 32.964559l-1.151712-1.100525 18.350613-11.261185 123.412346-75.731467 40.898576 169.915921q-43.765059-3.531917-85.098726-19.886228-3.352762-1.330867-6.654336-2.738516-50.342614-21.293877-89.782354-59.198z m-8.241139-0.358311l0.511872 0.486279-7.626894 7.934016q-33.374056-33.11812-55.538115-74.605348l9.904724-4.76041q20.884379 39.08143 52.722819 70.945463z m334.175656 75.757061l-4.299725-10.135066q46.887478-19.39995 84.586853-52.7996l7.985204 7.626893q-39.465334 35.114421-88.297926 55.28218z m-231.545314-8.369108q42.946063 17.019745 88.477081 20.423695l2.712921 11.209997q-50.59855-3.1992-97.767558-22.394401l4.683629-9.981505 1.868333 0.767808z m152.742614 151.155811q-1.714771-18.862484-14.383604-27.820244-11.72187-8.497076-33.041339-8.497076-19.297576 0-32.068783 8.394701-13.334266 8.957761-13.334267 24.493077 0 15.56091 13.871732 23.597301 5.093127 2.636141 27.692277 9.776755 19.860635 5.937716 24.109173 7.934017 11.517121 5.732967 11.517121 15.509722 0 7.934016-8.138766 12.412897-8.445889 4.606848-21.831342 4.606848-15.049038 0-22.522369-5.502624-8.061985-6.04009-10.109473-20.295726h-18.12027q0 21.652187 15.100225 31.787253 12.924769 8.369108 35.037641 8.369108 23.213397 0 36.035791-8.88098 12.899175-9.23929 12.899175-24.902574 0-16.123969-15.535316-25.337666-6.654336-3.992602-31.736066-11.568308-16.584654-4.786003-20.96116-7.242989-8.957761-4.581255-8.95776-12.515271 0-8.88098 7.754861-12.822394 6.449588-3.48073 18.299425-3.48073 13.64139 0 20.602849 5.221094 6.910272 4.837191 9.469633 16.763809h18.350612z" p-id="7786" fill="#2c2c2c"></path></svg>